# xmcd
#
# Track frame offsets: 
#        150
#        22020
#        50067
#        68340
#        87399
#        107455
#        122256
#        145903
#        165634
#
# Disc length: 2752 seconds
#
# Revision: 0
# Processed by: cddbd v1.5.2PL0 Copyright (c) Steve Scherf et al.
# Submitted via: ExactAudioCopy v1.3
#
DISCID=6e0abe09
DTITLE=Murali Coryell - Eyes Wide Open
DYEAR=2000
DGENRE=Guitar Blues
TTITLE0=Eyes Wide Open
TTITLE1=Now Is The Time
TTITLE2=That Makes Me Happy
TTITLE3=Comin' Home To Love You
TTITLE4=Hold Me
TTITLE5=Too Many Women
TTITLE6=The Ice Cream Song
TTITLE7=Everything I Got
TTITLE8=Softly Let Me Kiss Your Lips
EXTD=
EXTT0=
EXTT1=
EXTT2=
EXTT3=
EXTT4=
EXTT5=
EXTT6=
EXTT7=
EXTT8=
PLAYORDER=
